<svg width="23" height="22" viewBox="0 0 23 22" fill="none" xmlns="http://www.w3.org/2000/svg">
<path d="M20.1135 0.50804C21.5152 0.508118 22.2153 2.20428 21.2218 3.19311L14.6024 9.77976C14.003 10.3762 14.0041 11.3474 14.6044 11.9429L21.5126 18.7955C22.5121 19.787 21.8101 21.4925 20.4022 21.4925C19.9836 21.4924 19.5817 21.3254 19.2859 21.0291L12.3302 14.0584C11.7357 13.4628 10.7708 13.4622 10.175 14.0564L3.17651 21.036C2.88386 21.3279 2.48742 21.4924 2.0741 21.4925C0.679111 21.4925 -0.0166434 19.8017 0.974675 18.8203L7.92152 11.9439C8.52332 11.3481 8.52438 10.3755 7.92351 9.77877L1.29022 3.19212C0.296045 2.20461 0.99531 0.508164 2.39659 0.50804C2.81401 0.50804 3.2143 0.674735 3.50892 0.970435L10.175 7.66028C10.7706 8.25812 11.7385 8.25809 12.3341 7.66028L19.0002 0.970435C19.295 0.674485 19.6957 0.50804 20.1135 0.50804Z" fill="#262626" stroke="#262626"/>
</svg>
