<svg width="30" height="30" viewBox="0 0 30 30" fill="none" xmlns="http://www.w3.org/2000/svg">
<path fill-rule="evenodd" clip-rule="evenodd" d="M26.5656 15C26.5656 15.5156 26.5335 16 26.4693 16.4687L29.698 18.9375C30.0032 19.1562 30.0835 19.5469 29.8908 19.8906L26.8066 25.0781C26.6138 25.4219 26.2122 25.5469 25.8589 25.4219L22.0358 23.9219C21.2487 24.5156 20.3652 25.0156 19.4174 25.3906L18.8392 29.3594C18.791 29.7344 18.4697 30 18.0842 30H11.9158C11.5303 30 11.2251 29.7344 11.1448 29.3594L10.5665 25.3906C9.61876 25.0156 8.78347 24.5156 7.9803 23.9219L4.12508 25.4219C3.77169 25.5312 3.3701 25.4219 3.17734 25.0781L0.0931683 19.8906C-0.0835291 19.5781 -0.00321228 19.1562 0.285929 18.9375L3.5468 16.4687C3.46648 16 3.43435 15.4844 3.43435 15C3.43435 14.5156 3.49861 14 3.57892 13.5312L0.318056 11.0625C-0.0032123 10.8437 -0.0674657 10.4375 0.125295 10.1094L3.1934 4.92188C3.38616 4.57812 3.78775 4.45312 4.14114 4.57812L7.9803 6.07812C8.7674 5.5 9.63483 4.98437 10.5826 4.60937L11.1608 0.640625C11.2251 0.265625 11.5303 0 11.9158 0H18.0842C18.4697 0 18.791 0.265625 18.8552 0.640625L19.4335 4.60937C20.3812 4.98437 21.2326 5.48437 22.0358 6.07812L25.8749 4.57812C26.2283 4.46875 26.6299 4.57812 26.8227 4.92188L29.9068 10.1094C30.0835 10.4219 30.0032 10.8437 29.7141 11.0625L26.4532 13.5312C26.5335 14 26.5656 14.5 26.5656 15ZM14.7693 23.2658C19.3125 23.2658 22.9955 19.6833 22.9955 15.2641C22.9955 10.8448 19.3125 7.26232 14.7693 7.26232C10.226 7.26232 6.543 10.8448 6.543 15.2641C6.543 19.6833 10.226 23.2658 14.7693 23.2658Z" fill="#262626"/>
</svg>
