<svg width="14" height="14" viewBox="0 0 14 14" fill="none" xmlns="http://www.w3.org/2000/svg">
<path d="M14 1.16667V5.25C14 5.40799 13.9423 5.54471 13.8268 5.66016C13.7114 5.77561 13.5747 5.83333 13.4167 5.83333H9.33333C9.07812 5.83333 8.89887 5.71181 8.79557 5.46875C8.69227 5.23177 8.73481 5.02214 8.92318 4.83984L10.181 3.58203C9.28168 2.74957 8.22135 2.33333 7 2.33333C6.36805 2.33333 5.76497 2.45638 5.19075 2.70247C4.61654 2.94857 4.11979 3.28125 3.70052 3.70052C3.28125 4.11979 2.94857 4.61654 2.70247 5.19076C2.45638 5.76497 2.33333 6.36806 2.33333 7C2.33333 7.63194 2.45638 8.23503 2.70247 8.80925C2.94857 9.38346 3.28125 9.88021 3.70052 10.2995C4.11979 10.7188 4.61654 11.0514 5.19075 11.2975C5.76497 11.5436 6.36805 11.6667 7 11.6667C8.02691 11.6667 8.95052 11.3644 9.77083 10.7598C10.5911 10.1552 11.1532 9.36068 11.457 8.3763C11.4996 8.23655 11.5907 8.16667 11.7305 8.16667H13.5443C13.6415 8.16667 13.7174 8.20312 13.7721 8.27604C13.8329 8.35503 13.8542 8.43707 13.8359 8.52214C13.599 9.5855 13.1508 10.5334 12.4915 11.3659C11.8322 12.1984 11.0241 12.8455 10.0671 13.3073C9.11002 13.7691 8.08767 14 7 14C6.05208 14 5.1467 13.8147 4.28385 13.444C3.42101 13.0734 2.67665 12.5751 2.05078 11.9492C1.42491 11.3234 0.926649 10.579 0.55599 9.71615C0.18533 8.8533 0 7.94792 0 7C0 6.05208 0.18533 5.1467 0.55599 4.28385C0.926649 3.42101 1.42491 2.67665 2.05078 2.05078C2.67665 1.42491 3.42101 0.92665 4.28385 0.55599C5.1467 0.18533 6.05208 0 7 0C7.89323 0 8.75759 0.16862 9.5931 0.505859C10.4286 0.8431 11.1714 1.31858 11.8216 1.93229L13.0065 0.756511C13.1827 0.568143 13.3954 0.525608 13.6445 0.628906C13.8815 0.732205 14 0.911459 14 1.16667Z" fill="#262626"/>
</svg>
