<svg width="28" height="33" viewBox="0 0 28 33" fill="none" xmlns="http://www.w3.org/2000/svg">
<path d="M15.1072 18.6827V10.9926C15.1072 10.0912 14.406 9.36032 13.541 9.36032C12.6761 9.36032 11.9749 10.0912 11.9749 10.9926V19.6243C11.9749 19.8898 12.0763 20.1443 12.2568 20.3316L16.6382 24.8788C17.2513 25.515 18.2427 25.5127 18.8532 24.874C19.4635 24.2352 19.4614 23.2016 18.8485 22.5655L15.1072 18.6827Z" fill="#262626"/>
<path d="M16.2089 32.3023H11.7911C10.8992 32.3023 10.1733 31.5458 10.1733 30.6162V29.9308C10.1733 29.8241 10.1139 29.7252 10.0321 29.6957C9.57102 29.53 9.11276 29.3319 8.67098 29.1068C8.59444 29.0686 8.49178 29.0919 8.42147 29.1652L7.94982 29.6568C7.64462 29.9752 7.238 30.1506 6.80587 30.1506C6.37373 30.1506 5.96742 29.9752 5.66191 29.6564L2.53867 26.4007C1.90804 25.7434 1.90804 24.6737 2.53867 24.0162L3.01031 23.5246C3.07969 23.4523 3.10333 23.343 3.06662 23.2652C2.8504 22.8038 2.66 22.3265 2.50102 21.846C2.4724 21.761 2.37782 21.6994 2.27547 21.6994H1.61778C0.725822 21.6994 0 20.943 0 20.0133V15.409C0 14.4794 0.725822 13.723 1.61778 13.723H2.27578C2.37813 13.723 2.47271 13.6613 2.50102 13.5757C2.66062 13.0949 2.85071 12.6173 3.06631 12.1575C3.10364 12.0777 3.08062 11.9707 3.01 11.8974L2.53867 11.4062C1.90804 10.7486 1.90804 9.67895 2.53867 9.0217L5.66253 5.76562C5.96804 5.44721 6.37436 5.27211 6.80649 5.27211C7.23862 5.27211 7.64493 5.44753 7.95045 5.76562L8.42209 6.2575C8.49178 6.32981 8.596 6.35477 8.67129 6.31586C9.11244 6.09116 9.57071 5.89272 10.0324 5.72638C10.1142 5.69688 10.1733 5.5983 10.1733 5.49163V4.80617C10.1733 3.87655 10.8992 3.12009 11.7911 3.12009H16.2089C17.1008 3.12009 17.8267 3.87655 17.8267 4.80617V5.49195C17.8267 5.59863 17.8858 5.6972 17.9676 5.72671C18.4287 5.89272 18.8866 6.09116 19.3287 6.31619C19.4056 6.35445 19.5076 6.33078 19.5782 6.2575L20.0499 5.76594C20.6805 5.10869 21.7068 5.10869 22.3378 5.76594L25.4613 9.02138C26.092 9.67895 26.092 10.7486 25.4613 11.4059L24.9897 11.8974C24.9191 11.9711 24.896 12.0777 24.9334 12.1575C25.1496 12.6179 25.34 13.0955 25.499 13.5764C25.527 13.6614 25.6219 13.723 25.7242 13.723H26.3822C27.2742 13.723 28 14.4794 28 15.409V20.0133C28 20.943 27.2742 21.6994 26.3822 21.6994H25.7245C25.6222 21.6994 25.5273 21.761 25.499 21.8466C25.3403 22.3259 25.1502 22.8032 24.9343 23.2646C24.8973 23.3437 24.9206 23.4526 24.99 23.5249L25.4616 24.0165C26.0923 24.6737 26.0923 25.7434 25.4616 26.401L22.3375 29.6564C22.032 29.9749 21.6256 30.1503 21.1935 30.1503C20.7611 30.1503 20.3548 29.9745 20.0492 29.6558L19.5782 29.1652C19.5073 29.0919 19.4049 29.0673 19.3284 29.1062C18.8866 29.3315 18.4284 29.53 17.967 29.6957C17.8855 29.7249 17.8264 29.8238 17.8264 29.9304V30.6162C17.8267 31.5458 17.1008 32.3023 16.2089 32.3023ZM12.3511 30.0326H15.6489V29.9308C15.6489 28.8536 16.2948 27.8971 17.2564 27.5508C17.6347 27.4146 18.0099 27.2522 18.3727 27.0673C19.2861 26.6024 20.389 26.8008 21.1179 27.5605L21.1935 27.639L23.5253 25.2087L23.45 25.13C22.7204 24.3699 22.5307 23.2198 22.9774 22.2685C23.1544 21.8904 23.3103 21.499 23.4404 21.1061C23.7726 20.1032 24.6907 19.43 25.7242 19.43H25.8222V15.9927H25.7245C24.691 15.9927 23.7732 15.3195 23.441 14.3173C23.3103 13.923 23.1544 13.532 22.9771 13.1539C22.531 12.2019 22.7211 11.0521 23.4503 10.2924L23.5256 10.2136L21.1938 7.7834L21.1182 7.8622C20.389 8.62223 19.2858 8.8197 18.373 8.35505C18.0102 8.17023 17.6347 8.00778 17.257 7.8716C16.2954 7.52563 15.6492 6.5691 15.6492 5.49163V5.38981H12.3511V5.49163C12.3511 6.5691 11.7049 7.5253 10.7433 7.8716C10.3647 8.00778 9.98915 8.17055 9.62733 8.35505C8.71391 8.82002 7.61102 8.62191 6.88178 7.8622L6.80618 7.7834L4.4744 10.2136L4.55 10.2924C5.27893 11.0525 5.46902 12.2022 5.02289 13.1539C4.84618 13.531 4.69 13.9224 4.55933 14.317C4.22707 15.3195 3.30929 15.9927 2.27578 15.9927H2.17778V19.4297H2.27547C3.30929 19.4297 4.22676 20.1032 4.55902 21.1054C4.68938 21.499 4.84556 21.8904 5.02289 22.2688C5.46933 23.2198 5.27924 24.3696 4.55 25.1296L4.4744 25.2084L6.80649 27.6387L6.88178 27.5602C7.61102 26.7995 8.71453 26.6024 9.62764 27.0673C9.98978 27.2515 10.365 27.4143 10.743 27.5501C11.7049 27.8964 12.3508 28.8533 12.3508 29.9304V30.0326H12.3511ZM13.5327 11.7632C13.3796 11.7755 13.3796 11.7755 13.5327 11.7632V11.7632ZM13.5327 11.7632C13.3806 11.7632 13.6858 11.7509 13.5327 11.7632V11.7632Z" fill="#262626"/>
<rect x="11.564" width="4.93082" height="1.95772" rx="0.978858" fill="#262626"/>
<rect x="13.0901" y="0.672943" width="1.87841" height="2.44715" fill="#262626"/>
</svg>
