<svg width="28" height="34" viewBox="0 0 28 34" fill="none" xmlns="http://www.w3.org/2000/svg">
<path d="M16.1585 5.38262V2.80327H17.3359C18.1099 2.80327 18.7375 2.17568 18.7375 1.40164C18.7375 0.627597 18.11 0 17.3359 0H10.6641C9.89006 0 9.26247 0.627597 9.26247 1.40164C9.26247 2.17568 9.89006 2.80327 10.6641 2.80327H11.8415V5.38262C5.143 6.42376 0 12.2306 0 19.2162C0 26.9359 6.28046 33.2162 14 33.2162C21.7195 33.2162 28 26.9358 28 19.2162C28 12.2306 22.857 6.42376 16.1585 5.38262ZM14 30.4131C7.82607 30.4131 2.80327 25.3902 2.80327 19.2163C2.80327 13.0425 7.82618 8.01961 14 8.01961C20.1738 8.01961 25.1967 13.0425 25.1967 19.2163C25.1967 25.3902 20.1739 30.4131 14 30.4131Z" fill="#262626"/>
<path d="M15.4015 18.6339V12.0306C15.4015 11.2565 14.7739 10.6289 13.9998 10.6289C13.2258 10.6289 12.5982 11.2565 12.5982 12.0306V19.4424C12.5982 19.6704 12.689 19.8889 12.8505 20.0497L16.7716 23.9544C17.3203 24.5007 18.2076 24.4986 18.7539 23.9502C19.3 23.4017 19.2981 22.5141 18.7497 21.968L15.4015 18.6339Z" fill="#262626"/>
</svg>
